<?xml version="1.0" encoding="UTF-8"?> <svg xmlns="http://www.w3.org/2000/svg" width="21" height="21" viewBox="0 0 21 21" fill="none"> <path d="M6.16667 3.16665C6.16667 2.70641 5.79357 2.33331 5.33334 2.33331C4.8731 2.33331 4.5 2.70641 4.5 3.16665V4.83331H2.83333C2.3731 4.83331 2 5.20641 2 5.66665C2 6.12689 2.3731 6.49998 2.83333 6.49998H4.5V13.0321C4.49999 13.4714 4.49997 13.8504 4.52548 14.1625C4.55239 14.492 4.61182 14.8196 4.77249 15.135C5.01217 15.6054 5.39462 15.9878 5.86503 16.2275C6.18034 16.3882 6.50802 16.4476 6.83748 16.4745C7.14962 16.5 7.52858 16.5 7.96786 16.5H13.6667V14.8333H8C7.51954 14.8333 7.20931 14.8327 6.9732 14.8134C6.74681 14.7949 6.66288 14.7635 6.62168 14.7425C6.46487 14.6626 6.33739 14.5351 6.2575 14.3783C6.2365 14.3371 6.2051 14.2532 6.18661 14.0268C6.16732 13.7907 6.16667 13.4804 6.16667 13V3.16665Z" fill="#272727"></path> <path d="M16.1667 14.8333V8.30118C16.1667 7.86189 16.1667 7.48293 16.1412 7.17079C16.1143 6.84134 16.0548 6.51365 15.8942 6.19834C15.6545 5.72793 15.272 5.34548 14.8016 5.1058C14.4863 4.94514 14.1586 4.88571 13.8292 4.85879C13.5171 4.83329 13.1381 4.8333 12.6988 4.83331L7 4.83331V6.49998L12.6667 6.49998C13.1471 6.49998 13.4574 6.50063 13.6935 6.51992C13.9199 6.53842 14.0038 6.56982 14.045 6.59081C14.2018 6.6707 14.3293 6.79819 14.4092 6.95499C14.4302 6.99619 14.4616 7.08013 14.4801 7.30651C14.4994 7.54263 14.5 7.85285 14.5 8.33332V18.1666C14.5 18.6269 14.8731 19 15.3333 19C15.7936 19 16.1667 18.6269 16.1667 18.1666V16.5H17.8333C18.2936 16.5 18.6667 16.1269 18.6667 15.6666C18.6667 15.2064 18.2936 14.8333 17.8333 14.8333H16.1667Z" fill="#272727"></path> </svg> 