<?xml version="1.0" encoding="UTF-8"?> <svg xmlns="http://www.w3.org/2000/svg" width="21" height="21" viewBox="0 0 21 21" fill="none"> <path fill-rule="evenodd" clip-rule="evenodd" d="M7.5 2.33331H12.6667L16.8333 6.49998V12.4757C16.4921 12.596 16.1718 12.7926 15.8989 13.0655L14.3305 14.634C13.3488 13.7571 11.8413 13.7898 10.8989 14.7322C9.92259 15.7085 9.92259 17.2914 10.8989 18.2677L11.6311 19H7.5C6.09987 19 5.3998 19 4.86502 18.7275C4.39462 18.4878 4.01217 18.1054 3.77248 17.635C3.5 17.1002 3.5 16.4001 3.5 15V6.33331C3.5 4.93318 3.5 4.23312 3.77248 3.69834C4.01217 3.22793 4.39462 2.84548 4.86502 2.6058C5.3998 2.33331 6.09987 2.33331 7.5 2.33331ZM11.8333 6.66665V3.58331L15.5833 7.33331H12.5C12.2666 7.33331 12.15 7.33331 12.0608 7.2879C11.9824 7.24795 11.9187 7.18421 11.8787 7.10581C11.8333 7.01668 11.8333 6.9 11.8333 6.66665ZM6 8.16665C6 7.70641 6.3731 7.33331 6.83333 7.33331H7.66667C8.1269 7.33331 8.5 7.70641 8.5 8.16665C8.5 8.62688 8.1269 8.99998 7.66667 8.99998H6.83333C6.3731 8.99998 6 8.62688 6 8.16665ZM6 11.5C6 11.0397 6.3731 10.6666 6.83333 10.6666H11.8333C12.2936 10.6666 12.6667 11.0397 12.6667 11.5C12.6667 11.9602 12.2936 12.3333 11.8333 12.3333H6.83333C6.3731 12.3333 6 11.9602 6 11.5ZM6 14.8333C6 14.3731 6.3731 14 6.83333 14H8.91667C9.3769 14 9.75 14.3731 9.75 14.8333C9.75 15.2936 9.3769 15.6666 8.91667 15.6666H6.83333C6.3731 15.6666 6 15.2936 6 14.8333Z" fill="#272727"></path> <path d="M14.9226 18.7559L18.2559 15.4226C18.5814 15.0971 18.5814 14.5695 18.2559 14.2441C17.9305 13.9186 17.4028 13.9186 17.0774 14.2441L14.3333 16.9881L13.2559 15.9107C12.9305 15.5853 12.4028 15.5853 12.0774 15.9107C11.752 16.2362 11.752 16.7638 12.0774 17.0892L13.7441 18.7559C14.0695 19.0813 14.5972 19.0813 14.9226 18.7559Z" fill="#272727"></path> </svg> 