<?xml version="1.0" encoding="UTF-8"?> <svg xmlns="http://www.w3.org/2000/svg" width="21" height="21" viewBox="0 0 21 21" fill="none"> <path fill-rule="evenodd" clip-rule="evenodd" d="M13.1667 5.66663C13.1667 4.28591 14.286 3.16663 15.6667 3.16663C17.0474 3.16663 18.1667 4.28591 18.1667 5.66663C18.1667 7.04734 17.0474 8.16663 15.6667 8.16663C14.286 8.16663 13.1667 7.04734 13.1667 5.66663ZM7.67835 8.12614C8.08131 7.95066 8.53728 7.94145 8.947 8.10053C9.25638 8.22065 9.47154 8.43561 9.6278 8.61918C9.78262 8.80107 9.9506 9.04046 10.1319 9.29727L11.8488 11.7295C11.9647 11.5751 12.0746 11.4352 12.18 11.3114C12.4636 10.9783 12.7884 10.67 13.2194 10.5048C13.8395 10.267 14.5287 10.2857 15.1349 10.5568C15.5563 10.7452 15.8639 11.0707 16.129 11.4186C16.3878 11.7583 16.6714 12.2104 17.0095 12.7492L17.8353 14.0654C17.8967 14.1632 17.9803 14.2913 18.0401 14.436C18.0878 14.5512 18.1223 14.6713 18.1432 14.7942C18.1694 14.9486 18.1667 15.1015 18.1667 15.217L18.1667 17.3333C18.1667 17.7935 17.7936 18.1666 17.3334 18.1666C12.8887 18.1666 8.44402 18.1666 3.99935 18.1666C3.7783 18.1666 3.5663 18.0788 3.41001 17.9225C3.25373 17.7661 3.16596 17.5541 3.16602 17.3331L3.16658 15.2266C3.16661 15.1082 3.16382 14.9515 3.19135 14.7934C3.21327 14.6676 3.24957 14.5448 3.29955 14.4272C3.36232 14.2796 3.44986 14.1496 3.51418 14.0502L6.56066 9.34196C6.72458 9.08858 6.87685 8.85321 7.01903 8.67183C7.16775 8.4821 7.37406 8.25864 7.67835 8.12614Z" fill="#272727"></path> </svg> 